<svg version="1.1" id="el_4Xl8ZCtW-" xmlns="http://www.w3.org/2000/svg" xmlns:xlink="http://www.w3.org/1999/xlink" x="0px" y="0px" viewBox="0 0 512 512" style="enable-background:new 0 0 512 512;" xml:space="preserve" height="512" width="512"><style>@-webkit-keyframes el_G3fY88OCqB_Animation{0%{opacity: 0;}60%{opacity: 1;}100%{opacity: 1;}}@keyframes el_G3fY88OCqB_Animation{0%{opacity: 0;}60%{opacity: 1;}100%{opacity: 1;}}@-webkit-keyframes el_btB7RvlWdX_Animation{0%{opacity: 0;}100%{opacity: 1;}}@keyframes el_btB7RvlWdX_Animation{0%{opacity: 0;}100%{opacity: 1;}}@-webkit-keyframes el_w2VedR4oK6_Animation{0%{opacity: 0;}100%{opacity: 1;}}@keyframes el_w2VedR4oK6_Animation{0%{opacity: 0;}100%{opacity: 1;}}@-webkit-keyframes el_AdxsRENNxT_Animation{0%{opacity: 0;}100%{opacity: 1;}}@keyframes el_AdxsRENNxT_Animation{0%{opacity: 0;}100%{opacity: 1;}}@-webkit-keyframes el_15Dk1cF43E_Animation{0%{opacity: 0;}100%{opacity: 1;}}@keyframes el_15Dk1cF43E_Animation{0%{opacity: 0;}100%{opacity: 1;}}@-webkit-keyframes el_RMyyWLY6Sw_Animation{0%{opacity: 0;}100%{opacity: 1;}}@keyframes el_RMyyWLY6Sw_Animation{0%{opacity: 0;}100%{opacity: 1;}}@-webkit-keyframes el_B1XMhCZGHG_Animation{0%{opacity: 0;}60%{opacity: 1;}100%{opacity: 1;}}@keyframes el_B1XMhCZGHG_Animation{0%{opacity: 0;}60%{opacity: 1;}100%{opacity: 1;}}@-webkit-keyframes el_46IW4qS9hJ_Animation{0%{opacity: 0;}60%{opacity: 1;}100%{opacity: 1;}}@keyframes el_46IW4qS9hJ_Animation{0%{opacity: 0;}60%{opacity: 1;}100%{opacity: 1;}}@-webkit-keyframes el_ll1kgYDBWp_Animation{0%{opacity: 0;}50%{opacity: 1;}100%{opacity: 1;}}@keyframes el_ll1kgYDBWp_Animation{0%{opacity: 0;}50%{opacity: 1;}100%{opacity: 1;}}@-webkit-keyframes el_1VY-JnUQFg_Animation{0%{opacity: 0;}50%{opacity: 1;}100%{opacity: 1;}}@keyframes el_1VY-JnUQFg_Animation{0%{opacity: 0;}50%{opacity: 1;}100%{opacity: 1;}}@-webkit-keyframes el_VrJP9GbXFG_Animation{0%{opacity: 0;}30%{opacity: 1;}100%{opacity: 1;}}@keyframes el_VrJP9GbXFG_Animation{0%{opacity: 0;}30%{opacity: 1;}100%{opacity: 1;}}#el_4Xl8ZCtW- *{-webkit-animation-duration: 2s;animation-duration: 2s;-webkit-animation-iteration-count: infinite;animation-iteration-count: infinite;-webkit-animation-timing-function: cubic-bezier(0, 0, 1, 1);animation-timing-function: cubic-bezier(0, 0, 1, 1);}#el_1VY-JnUQFg{fill: #F5C86E;-webkit-animation-name: el_1VY-JnUQFg_Animation;animation-name: el_1VY-JnUQFg_Animation;opacity: 0;-webkit-animation-timing-function: cubic-bezier(0.42, 0, 1, 1);animation-timing-function: cubic-bezier(0.42, 0, 1, 1);}#el_VrJP9GbXFG{fill: #FF826E;-webkit-animation-name: el_VrJP9GbXFG_Animation;animation-name: el_VrJP9GbXFG_Animation;opacity: 0;-webkit-animation-timing-function: cubic-bezier(0.42, 0, 1, 1);animation-timing-function: cubic-bezier(0.42, 0, 1, 1);}#el_AdxsRENNxT{-webkit-animation-name: el_AdxsRENNxT_Animation;animation-name: el_AdxsRENNxT_Animation;opacity: 0;-webkit-animation-timing-function: cubic-bezier(0.42, 0, 1, 1);animation-timing-function: cubic-bezier(0.42, 0, 1, 1);}#el_15Dk1cF43E{-webkit-animation-name: el_15Dk1cF43E_Animation;animation-name: el_15Dk1cF43E_Animation;opacity: 0;-webkit-animation-timing-function: cubic-bezier(0.42, 0, 1, 1);animation-timing-function: cubic-bezier(0.42, 0, 1, 1);}#el_btB7RvlWdX{-webkit-animation-name: el_btB7RvlWdX_Animation;animation-name: el_btB7RvlWdX_Animation;opacity: 0;-webkit-animation-timing-function: cubic-bezier(0.42, 0, 1, 1);animation-timing-function: cubic-bezier(0.42, 0, 1, 1);}#el_RMyyWLY6Sw{-webkit-animation-name: el_RMyyWLY6Sw_Animation;animation-name: el_RMyyWLY6Sw_Animation;opacity: 0;-webkit-animation-timing-function: cubic-bezier(0.42, 0, 1, 1);animation-timing-function: cubic-bezier(0.42, 0, 1, 1);}#el_ll1kgYDBWp{-webkit-animation-name: el_ll1kgYDBWp_Animation;animation-name: el_ll1kgYDBWp_Animation;opacity: 0;-webkit-animation-timing-function: cubic-bezier(0.42, 0, 1, 1);animation-timing-function: cubic-bezier(0.42, 0, 1, 1);}#el_46IW4qS9hJ{-webkit-animation-name: el_46IW4qS9hJ_Animation;animation-name: el_46IW4qS9hJ_Animation;opacity: 0;-webkit-animation-timing-function: cubic-bezier(0.42, 0, 1, 1);animation-timing-function: cubic-bezier(0.42, 0, 1, 1);}#el_w2VedR4oK6{-webkit-animation-name: el_w2VedR4oK6_Animation;animation-name: el_w2VedR4oK6_Animation;opacity: 0;-webkit-animation-timing-function: cubic-bezier(0.42, 0, 1, 1);animation-timing-function: cubic-bezier(0.42, 0, 1, 1);}#el_B1XMhCZGHG{-webkit-animation-name: el_B1XMhCZGHG_Animation;animation-name: el_B1XMhCZGHG_Animation;opacity: 0;-webkit-animation-timing-function: cubic-bezier(0.42, 0, 1, 1);animation-timing-function: cubic-bezier(0.42, 0, 1, 1);}#el_G3fY88OCqB{-webkit-animation-name: el_G3fY88OCqB_Animation;animation-name: el_G3fY88OCqB_Animation;opacity: 0;-webkit-animation-timing-function: cubic-bezier(0.42, 0, 1, 1);animation-timing-function: cubic-bezier(0.42, 0, 1, 1);}</style>
<path d="M409.975,158.846l6.43-5.062c23.003-18.111,55.917-16.16,76.62,4.543l8.948,8.948l-43.083,57.701&#xA;&#9;c-7.264,9.728-13.947,19.877-20.015,30.394l-26.301,45.583C376.059,364.239,308.548,403.23,235.483,403.23H10.161l73.624-53.719&#xA;&#9;L409.975,158.846z" id="el_1VY-JnUQFg"/>
<path d="M150.984,244.736c-6.908-15.028-0.326-32.81,14.702-39.719c18.785-8.635,41.014-0.407,49.648,18.378&#xA;&#9;c10.794,23.481,0.509,51.267-22.972,62.061c-29.351,13.492-64.083,0.636-77.576-28.715c-16.866-36.69-0.795-80.104,35.895-96.97&#xA;&#9;c45.862-21.082,100.13-0.994,121.213,44.868c26.353,57.328,1.242,125.163-56.085,151.516&#xA;&#9;c-71.659,32.94-156.454,1.553-189.394-70.107c-41.176-89.574-1.941-195.567,87.634-236.743&#xA;&#9;c111.968-51.47,244.459-2.426,295.929,109.541l0,0c-30.185,38.252-72.333,65.27-119.694,76.727l-1.486,0.359" id="el_VrJP9GbXFG"/>
<path d="M421.233,305.95l26.301-45.583c5.849-10.137,12.365-20.032,19.366-29.409l43.083-57.701&#xA;&#9;c2.972-3.98,2.571-9.539-0.941-13.051l-8.948-8.949c-8.12-8.12-17.853-13.766-28.216-16.908l20.845-36.105&#xA;&#9;c2.761-4.782,1.123-10.897-3.659-13.657c-4.781-2.759-10.896-1.123-13.657,3.659l-19.142,33.156l-18.576-32.175&#xA;&#9;c-2.761-4.783-8.876-6.421-13.657-3.659c-4.782,2.76-6.421,8.875-3.659,13.657l19.26,33.36c-9.161,1.715-18.058,5.333-26.081,10.898&#xA;&#9;C386.76,92.422,342.653,53.578,288.169,33.41C229.77,11.794,166.45,14.212,109.871,40.221&#xA;&#9;C64.122,61.25,29.301,98.837,11.823,146.056C-5.656,193.275-3.7,244.474,17.33,290.223c11.105,24.158,27.909,44.552,48.853,59.754&#xA;&#9;L4.268,395.153c-3.496,2.551-4.954,7.062-3.612,11.176c1.342,4.115,5.178,6.899,9.505,6.899h225.322&#xA;&#9;C311.879,413.228,383.054,372.121,421.233,305.95z M35.498,281.872c-18.799-40.896-20.547-86.664-4.922-128.874&#xA;&#9;s46.752-75.81,87.648-94.608c28.369-13.04,58.586-19.594,88.905-19.594c24.96,0,49.992,4.444,74.099,13.368&#xA;&#9;c51.454,19.046,92.789,56.3,117.003,105.278c-28.054,33.426-66.416,57.452-108.793,68.044c-1.905-8.521-4.725-16.901-8.458-25.022&#xA;&#9;c-11.311-24.607-31.529-43.337-56.927-52.738c-25.399-9.401-52.937-8.349-77.546,2.961c-41.64,19.141-59.944,68.59-40.803,110.23&#xA;&#9;c15.774,34.313,56.523,49.399,90.836,33.624c13.783-6.336,24.274-17.66,29.54-31.887c5.266-14.226,4.677-29.652-1.66-43.434&#xA;&#9;c-5.291-11.512-14.749-20.274-26.632-24.672c-11.882-4.399-24.765-3.907-36.277,1.386c-20.013,9.199-28.81,32.965-19.611,52.978&#xA;&#9;c2.307,5.017,8.244,7.216,13.259,4.909c5.017-2.307,7.215-8.242,4.909-13.259c-4.594-9.996-0.201-21.865,9.794-26.46&#xA;&#9;c6.659-3.061,14.111-3.345,20.984-0.802c6.874,2.544,12.344,7.612,15.405,14.271c4.105,8.93,4.487,18.924,1.075,28.141&#xA;&#9;c-3.412,9.217-10.209,16.555-19.139,20.66c-24.295,11.167-53.147,0.488-64.316-23.807c-14.536-31.622-0.635-69.174,30.987-83.71&#xA;&#9;c40.779-18.745,89.207-0.82,107.953,39.96c11.63,25.299,12.711,53.613,3.045,79.726c-9.666,26.114-28.922,46.899-54.222,58.529&#xA;&#9;c-32.231,14.816-68.302,16.194-101.57,3.879c-7.242-2.68-14.16-5.941-20.708-9.732c-0.313-0.21-0.636-0.402-0.968-0.574&#xA;&#9;C65.309,327.017,46.929,306.74,35.498,281.872z M84.493,361.371c5.972,3.155,12.187,5.948,18.627,8.331&#xA;&#9;c17.286,6.399,35.226,9.584,53.124,9.583c21.734,0,43.402-4.699,63.739-14.047c30.153-13.86,53.102-38.633,64.623-69.756&#xA;&#9;c6.025-16.275,8.546-33.267,7.598-50.089l0.426-0.103c48.906-11.831,93.036-39.971,124.415-79.287l5.543-4.364&#xA;&#9;c19.012-14.969,46.255-13.354,63.364,3.757l2.83,2.83l-37.907,50.768c-7.471,10.005-14.423,20.563-20.664,31.379l-26.301,45.583&#xA;&#9;c-34.619,60.001-99.158,97.275-168.43,97.275H40.827L84.493,361.371z" id="el_ddosFay43H"/>
<path d="M410.52,72.172c2.629,0,5.209-1.07,7.069-2.929c1.86-1.86,2.929-4.439,2.929-7.069c0-2.629-1.07-5.209-2.929-7.069&#xA;&#9;c-1.86-1.86-4.439-2.929-7.069-2.929s-5.209,1.07-7.069,2.929c-1.86,1.86-2.929,4.439-2.929,7.069c0,2.629,1.07,5.209,2.929,7.069&#xA;&#9;C405.311,71.102,407.891,72.172,410.52,72.172z" id="el_ll1kgYDBWp"/>
<path d="M502.002,72.172c2.629,0,5.209-1.07,7.069-2.929c1.87-1.86,2.929-4.439,2.929-7.069c0-2.629-1.06-5.209-2.929-7.069&#xA;&#9;c-1.86-1.86-4.439-2.929-7.069-2.929s-5.209,1.07-7.069,2.929c-1.86,1.86-2.929,4.439-2.929,7.069c0,2.629,1.07,5.209,2.929,7.069&#xA;&#9;C496.793,71.102,499.373,72.172,502.002,72.172z" id="el_G3fY88OCqB"/>
<path d="M71.83,265.161l-0.129-0.284c-2.292-5.024-8.222-7.239-13.246-4.946c-5.023,2.292-7.238,8.222-4.946,13.246l0.162,0.352&#xA;&#9;c1.687,3.66,5.305,5.816,9.086,5.816c1.4,0,2.823-0.296,4.178-0.92C71.949,276.114,74.141,270.175,71.83,265.161z" id="el_46IW4qS9hJ"/>
<path d="M61.264,228.94c-7.584-55.6,22.706-110.791,73.663-134.215c5.017-2.307,7.215-8.243,4.908-13.26s-8.241-7.215-13.26-4.908&#xA;&#9;c-29.483,13.553-53.2,35.813-68.589,64.374c-14.876,27.611-20.748,59.826-16.535,90.711c0.684,5.013,4.972,8.647,9.894,8.647&#xA;&#9;c0.45,0,0.906-0.03,1.364-0.093C58.179,239.451,62.01,234.411,61.264,228.94z" id="el_B1XMhCZGHG"/>
<path d="M501.973,393.232H371.999c-5.522,0-9.998,4.476-9.998,9.998c0,5.522,4.476,9.998,9.998,9.998h129.974&#xA;&#9;c5.522,0,9.998-4.476,9.998-9.998C511.971,397.708,507.495,393.232,501.973,393.232z" id="el_w2VedR4oK6"/>
<path d="M462.223,433.224h-61.029c-5.522,0-9.998,4.476-9.998,9.998c0,5.522,4.476,9.998,9.998,9.998h61.029&#xA;&#9;c5.522,0,9.998-4.476,9.998-9.998C472.221,437.7,467.745,433.224,462.223,433.224z" id="el_btB7RvlWdX"/>
<path d="M363.466,443.222c0-5.522-4.476-9.998-9.998-9.998H79.848c-5.522,0-9.998,4.476-9.998,9.998&#xA;&#9;c0,5.522,4.476,9.998,9.998,9.998h273.62C358.99,453.22,363.466,448.744,363.466,443.222z" id="el_RMyyWLY6Sw"/>
<path d="M147.03,473.216h-31.414c-5.522,0-9.998,4.476-9.998,9.998c0,5.522,4.476,9.998,9.998,9.998h31.414&#xA;&#9;c5.522,0,9.998-4.476,9.998-9.998C157.028,477.692,152.552,473.216,147.03,473.216z" id="el_15Dk1cF43E"/>
<path d="M427.975,473.216H199.033c-5.522,0-9.998,4.476-9.998,9.998c0,5.522,4.476,9.998,9.998,9.998h228.941&#xA;&#9;c5.522,0,9.998-4.476,9.998-9.998C437.973,477.692,433.497,473.216,427.975,473.216z" id="el_AdxsRENNxT"/>
<g id="el_VVJu5qVF_y">
</g>
<g id="el_uLidIpFK6D">
</g>
<g id="el_QA77O-vkTO">
</g>
<g id="el_2CEa5TglP6s">
</g>
<g id="el_Y5o2W-AZGfO">
</g>
<g id="el_4Ue9gDxcdd5">
</g>
<g id="el_tswKst6RprF">
</g>
<g id="el_-oMwR6UxoFI">
</g>
<g id="el_siCjHuefId2">
</g>
<g id="el_zy4qPkNdR8B">
</g>
<g id="el_Yjgt8T9wLwz">
</g>
<g id="el_vUn43KYQhmu">
</g>
<g id="el_c1fMUIb0wLp">
</g>
<g id="el_LzpqpAm4-9H">
</g>
<g id="el_Bq5_LehstOs">
</g>
</svg>