<?xml version="1.0" standalone="no"?>
<!DOCTYPE svg PUBLIC "-//W3C//DTD SVG 20010904//EN"
 "http://www.w3.org/TR/2001/REC-SVG-20010904/DTD/svg10.dtd">
<svg version="1.0" xmlns="http://www.w3.org/2000/svg"
 width="1568.000000pt" height="1568.000000pt" viewBox="0 0 1568.000000 1568.000000"
 preserveAspectRatio="xMidYMid meet">
<metadata>
Created by potrace 1.11, written by Peter Selinger 2001-2013
</metadata>
<g transform="translate(0.000000,1568.000000) scale(0.100000,-0.100000)"
fill="#000000" stroke="none">
<path d="M6302 15655 c-40 -46 -55 -93 -46 -148 5 -32 22 -56 95 -129 49 -50
86 -94 83 -99 -3 -5 0 -9 5 -9 6 0 11 -7 11 -15 0 -8 5 -15 10 -15 6 0 10 -4
10 -9 0 -5 26 -64 59 -130 32 -66 56 -123 53 -126 -3 -3 0 -5 6 -5 7 0 11 -3
10 -7 -1 -5 3 -19 9 -33 6 -14 22 -52 36 -85 51 -123 150 -419 163 -490 10
-48 9 -46 17 -65 13 -29 37 -134 32 -138 -3 -3 -1 -10 4 -16 5 -6 12 -24 15
-41 3 -16 13 -64 21 -105 9 -41 17 -84 19 -95 1 -12 6 -26 10 -33 11 -18 0
-29 -34 -35 -16 -4 -33 -7 -38 -8 -67 -15 -427 -160 -545 -220 -21 -10 -44
-19 -52 -19 -8 0 -15 -3 -15 -7 0 -5 -34 -24 -75 -43 -41 -19 -75 -38 -75 -42
0 -5 -5 -8 -11 -8 -15 0 -260 -143 -304 -178 -5 -4 -27 -18 -48 -31 -21 -13
-44 -30 -52 -38 -8 -8 -15 -11 -15 -6 0 4 -4 3 -8 -2 -4 -6 -39 -34 -78 -63
-85 -62 -106 -84 -78 -79 11 1 24 5 29 8 6 3 21 6 35 7 14 1 52 5 85 10 96 12
352 6 475 -12 14 -2 48 -7 76 -10 28 -4 61 -9 75 -12 13 -3 38 -7 54 -10 28
-4 88 -16 145 -30 14 -4 32 -8 40 -9 8 -1 22 -5 30 -8 8 -4 26 -9 40 -11 14
-3 55 -14 93 -25 102 -32 202 -61 205 -61 2 0 -6 -13 -17 -29 -12 -16 -34 -56
-50 -90 -16 -34 -34 -68 -41 -76 -7 -8 -10 -15 -7 -15 3 0 -8 -39 -24 -87 -26
-77 -54 -176 -64 -223 -2 -8 -4 -15 -5 -15 -1 0 -3 -7 -5 -15 -2 -8 -11 -49
-20 -90 -9 -41 -18 -86 -21 -100 -3 -14 -10 -45 -15 -70 -6 -25 -13 -58 -15
-75 -5 -36 -12 -70 -14 -70 -1 0 -3 -13 -5 -30 -8 -66 -16 -121 -20 -135 -4
-14 -6 -30 -19 -135 -23 -182 -29 -261 -27 -371 1 -46 8 -52 76 -60 50 -6 266
-64 280 -75 6 -4 22 -10 37 -13 14 -2 34 -9 44 -15 11 -5 48 -24 84 -40 36
-17 88 -44 115 -61 28 -17 58 -33 68 -37 9 -3 17 -9 17 -14 0 -5 7 -9 15 -9 8
0 15 -4 15 -9 0 -4 19 -21 42 -36 22 -15 50 -36 62 -46 12 -10 43 -38 70 -61
72 -62 251 -242 321 -322 33 -38 65 -74 71 -80 6 -6 16 -21 22 -33 18 -32 34
-24 93 47 174 212 412 434 593 554 139 93 300 165 481 216 90 25 91 25 161 35
39 5 54 12 61 29 9 21 8 139 -2 226 -2 25 -7 70 -9 100 -3 30 -8 73 -12 95 -4
22 -7 51 -9 65 -1 14 -5 36 -8 50 -4 14 -9 47 -12 73 -2 26 -6 51 -8 55 -3 4
-8 32 -12 62 -10 73 -11 82 -18 100 -4 12 -35 157 -51 245 -2 11 -11 45 -20
76 -9 31 -18 65 -21 76 -6 35 -72 225 -96 278 -12 28 -33 67 -46 87 -27 44
-29 58 -8 58 8 0 23 4 33 10 13 8 87 30 112 34 3 1 10 4 15 7 42 26 496 124
616 134 20 1 41 4 45 7 24 12 352 15 451 4 34 -4 77 -11 95 -16 l33 -9 -40 35
c-54 49 -212 161 -315 225 -47 28 -88 57 -92 63 -4 6 -8 8 -8 3 0 -4 -17 3
-37 16 -74 46 -382 207 -397 207 -2 0 -37 15 -78 34 -78 36 -322 129 -400 153
-53 15 -53 17 -37 93 6 29 12 59 14 68 2 9 4 17 5 17 1 0 3 12 5 26 2 14 8 44
15 68 6 23 13 54 16 69 2 15 13 61 25 102 11 41 22 82 24 90 15 68 69 246 103
340 3 8 6 20 8 25 17 70 84 226 182 424 66 134 86 164 152 233 90 96 99 111
100 166 0 73 -55 149 -101 137 -23 -6 -69 -63 -69 -85 0 -5 -5 -10 -11 -10 -5
0 -8 -4 -4 -9 3 -5 1 -12 -5 -16 -5 -3 -10 -13 -10 -22 0 -9 -7 -24 -15 -33
-8 -9 -16 -25 -18 -36 -1 -10 -5 -23 -9 -29 -3 -5 -27 -62 -52 -125 -26 -63
-51 -124 -56 -135 -5 -11 -30 -72 -55 -135 -48 -121 -53 -133 -79 -192 -9 -20
-16 -38 -16 -41 0 -3 -5 -18 -12 -34 -6 -15 -12 -30 -13 -33 -1 -3 -5 -14 -10
-25 -19 -47 -195 -498 -230 -590 -21 -55 -44 -112 -51 -127 -7 -15 -15 -41
-19 -57 -11 -49 -26 -55 -97 -36 -68 17 -78 19 -153 31 -27 4 -54 8 -60 10
-27 6 -83 15 -124 20 -25 2 -73 8 -106 11 -80 10 -462 9 -550 -1 -38 -4 -88
-9 -109 -12 -45 -4 -101 -12 -136 -19 -14 -3 -37 -7 -52 -10 -16 -3 -43 -8
-60 -11 -18 -3 -42 -8 -53 -10 -22 -3 -47 -9 -82 -20 -16 -4 -23 -2 -23 8 0
12 -32 97 -83 218 -5 14 -11 31 -13 38 -1 7 -12 33 -23 58 -12 24 -21 48 -21
53 0 5 -6 22 -14 38 -17 34 -38 84 -42 98 -2 10 -38 104 -53 140 -5 11 -17 40
-27 65 -9 25 -26 65 -37 90 -11 24 -20 49 -22 55 -2 12 -21 60 -37 95 -6 14
-14 34 -18 45 -5 11 -15 36 -23 55 -26 60 -69 165 -71 175 -2 6 -8 21 -13 35
-6 14 -21 50 -33 80 -12 30 -32 78 -46 108 -13 29 -24 55 -24 57 0 7 -59 137
-75 166 -8 14 -12 29 -8 33 3 3 1 6 -5 6 -7 0 -12 6 -12 13 0 19 -30 44 -60
52 -20 5 -31 0 -48 -20z"/>
<path d="M5855 10867 c-6 -7 -21 -37 -33 -67 -13 -30 -27 -64 -32 -75 -16 -39
-23 -60 -22 -67 1 -5 -2 -8 -8 -8 -5 0 -9 -3 -8 -7 0 -5 -2 -15 -5 -23 -8 -20
-30 -74 -32 -80 -1 -3 -7 -18 -14 -34 -6 -15 -25 -63 -42 -105 -17 -42 -35
-85 -39 -96 -5 -11 -21 -49 -35 -85 -14 -36 -30 -74 -35 -85 -5 -11 -35 -83
-65 -160 -31 -77 -62 -153 -70 -170 -7 -16 -28 -66 -45 -110 -18 -44 -40 -98
-50 -120 -9 -22 -25 -62 -35 -90 -10 -27 -22 -54 -25 -60 -11 -15 -62 -153
-60 -161 1 -4 -2 -10 -7 -13 -7 -5 -66 -144 -68 -161 0 -3 -8 -21 -17 -40 -34
-75 -73 -175 -70 -182 1 -5 -2 -8 -8 -8 -5 0 -10 -6 -10 -14 0 -8 -16 -52 -36
-98 -20 -45 -37 -91 -40 -102 -2 -10 -7 -23 -12 -30 -5 -6 -18 -33 -28 -61
-10 -27 -24 -61 -31 -75 -7 -14 -13 -28 -13 -32 0 -3 -10 -28 -22 -55 -12 -26
-22 -52 -23 -58 0 -5 -3 -15 -7 -20 -3 -6 -25 -58 -48 -115 -23 -58 -47 -118
-54 -135 -18 -41 -33 -79 -35 -87 -1 -4 -20 -48 -41 -98 -21 -49 -35 -90 -32
-90 4 0 1 -4 -6 -8 -7 -5 -14 -17 -16 -28 -5 -22 -111 -280 -126 -306 -5 -10
-10 -23 -10 -30 0 -7 -10 -33 -22 -58 -11 -25 -22 -50 -23 -55 -2 -6 -12 -31
-22 -55 -11 -25 -28 -67 -38 -95 -10 -27 -21 -54 -25 -60 -3 -5 -19 -41 -34
-80 -50 -124 -118 -289 -134 -325 -9 -19 -17 -37 -17 -40 -1 -3 -6 -16 -12
-30 -6 -14 -18 -42 -26 -62 -9 -21 -13 -38 -9 -38 4 0 2 -4 -4 -8 -14 -9 -163
-432 -179 -507 -1 -5 -7 -30 -14 -55 -7 -25 -15 -52 -17 -60 -2 -8 -8 -35 -15
-60 -16 -67 -20 -82 -24 -110 -2 -14 -9 -40 -14 -59 -6 -18 -10 -36 -9 -40 0
-3 -1 -8 -2 -11 -1 -3 -3 -16 -5 -30 -1 -14 -7 -52 -13 -85 -6 -33 -14 -73
-17 -90 -3 -16 -8 -50 -10 -75 -3 -25 -8 -61 -11 -80 -5 -33 -7 -66 -20 -225
-9 -118 -12 -315 -5 -315 4 0 14 12 24 27 9 16 32 46 51 68 19 22 45 53 58 68
69 83 234 252 348 355 100 91 365 285 501 367 119 72 165 101 167 107 2 5 8 8
13 8 5 0 38 17 72 38 35 21 70 42 77 46 8 4 24 12 35 19 11 7 52 30 90 51 39
21 78 46 88 54 9 8 17 11 17 7 0 -4 8 -2 18 6 19 16 43 30 105 62 23 11 44 23
47 26 3 4 23 15 45 26 22 11 96 51 165 89 172 96 218 121 270 148 25 13 46 26
48 30 2 4 19 12 38 18 19 6 34 16 34 21 0 5 9 9 20 9 11 0 20 3 20 8 0 4 24
18 53 32 28 13 54 28 57 32 3 4 18 11 33 17 21 8 27 8 27 -4 0 -7 -5 -17 -10
-20 -6 -4 -8 -11 -5 -16 4 -5 1 -9 -4 -9 -6 0 -10 -3 -9 -7 3 -9 -19 -97 -32
-128 -4 -11 -13 -45 -19 -75 -10 -53 -12 -66 -25 -155 -10 -69 -19 -179 -18
-215 4 -91 11 -225 12 -225 1 0 3 -11 5 -25 4 -36 14 -102 21 -130 3 -14 9
-41 14 -60 6 -28 39 -138 64 -215 5 -17 17 -49 26 -70 43 -100 70 -169 70
-181 0 -8 5 -14 10 -14 6 0 10 -6 10 -13 0 -11 34 -96 94 -232 7 -16 30 -73
51 -125 20 -52 43 -108 50 -125 7 -16 21 -50 30 -75 22 -59 29 -76 54 -132 12
-26 21 -52 21 -58 0 -5 11 -33 24 -62 21 -48 39 -94 41 -108 0 -3 3 -9 7 -15
8 -13 135 -336 155 -395 8 -25 19 -50 24 -56 5 -6 10 -19 12 -30 2 -10 11 -36
20 -58 9 -21 17 -42 17 -47 0 -5 4 -17 10 -27 9 -17 120 -298 124 -317 4 -13
24 -64 36 -90 9 -20 133 -336 136 -345 0 -3 5 -14 9 -25 17 -39 146 -370 149
-380 6 -26 18 -62 27 -82 5 -13 13 -33 18 -45 5 -13 28 -84 51 -158 23 -74 49
-156 57 -181 8 -25 15 -52 16 -60 2 -8 6 -20 10 -26 5 -7 6 -13 3 -13 -3 0 2
-16 10 -35 8 -19 12 -35 10 -35 -3 0 1 -18 9 -40 8 -22 12 -40 8 -40 -3 0 -1
-6 5 -12 5 -7 12 -26 15 -43 3 -16 18 -86 35 -155 17 -69 34 -143 38 -165 3
-22 9 -49 11 -60 5 -21 22 -105 28 -140 2 -11 9 -45 14 -75 6 -30 13 -65 15
-77 7 -33 37 -241 39 -263 1 -11 4 -20 7 -20 3 0 5 -10 6 -22 0 -29 12 -151
19 -198 3 -19 6 -52 7 -72 1 -21 4 -38 8 -38 3 0 5 -17 3 -37 l-3 -38 11 30
c5 17 11 44 14 60 2 17 4 30 5 30 2 0 6 18 14 65 3 19 8 46 12 60 3 14 7 34 8
45 5 34 17 95 35 170 5 22 12 54 15 70 3 17 10 53 16 80 6 28 14 61 17 75 10
49 11 55 13 55 1 0 3 9 5 20 4 25 12 61 30 138 8 33 12 64 9 69 -3 4 -1 8 3 8
5 0 15 28 23 63 16 76 13 63 40 172 12 50 23 97 25 105 5 26 56 214 62 230 3
8 7 24 9 35 5 29 10 48 17 65 4 8 9 26 11 40 3 14 5 25 6 25 1 0 3 7 5 15 1 8
8 35 16 60 7 25 13 50 14 55 2 6 13 44 26 85 12 41 23 80 25 85 1 6 16 57 34
115 17 58 36 121 41 140 6 19 13 42 16 50 3 8 7 20 9 27 1 6 17 58 34 115 18
57 33 108 35 113 1 6 5 17 8 25 3 8 13 40 22 70 9 30 19 62 22 70 3 8 7 20 8
25 1 6 3 13 5 18 1 4 3 10 5 15 1 4 4 14 7 22 5 14 110 339 113 350 14 52 19
67 24 75 3 6 6 12 7 15 0 3 4 12 7 20 3 8 15 40 26 70 40 114 91 256 100 275
15 36 29 69 62 145 17 41 47 109 66 150 62 133 105 225 113 240 25 44 104 207
106 218 1 8 10 22 18 31 9 10 16 21 16 25 0 9 82 178 90 186 3 3 6 10 7 15 1
6 21 53 44 105 72 165 146 413 164 550 15 120 18 147 19 163 0 9 4 17 9 17 4
0 4 8 -2 17 -5 9 -6 26 -2 37 6 18 8 391 2 391 -1 0 -4 18 -6 40 -11 115 -15
142 -20 165 -3 14 -7 44 -9 66 -2 23 -6 46 -9 50 -3 5 -8 25 -11 44 -3 19 -10
50 -16 69 -5 19 -8 37 -5 39 3 3 0 11 -7 19 -24 30 5 23 79 -17 43 -24 107
-59 143 -78 36 -19 70 -38 75 -42 6 -5 51 -29 100 -55 50 -26 104 -55 120 -65
45 -26 156 -87 310 -170 44 -24 92 -51 107 -62 14 -10 28 -18 31 -18 3 0 44
-23 92 -50 48 -28 91 -50 96 -50 5 0 9 -4 9 -10 0 -5 5 -10 11 -10 5 0 60 -31
122 -68 62 -37 119 -71 127 -75 8 -4 27 -15 41 -25 15 -9 59 -38 98 -64 39
-27 75 -48 80 -48 4 0 16 -9 26 -20 10 -11 24 -20 32 -20 7 0 13 -3 13 -7 0
-5 17 -19 38 -33 37 -24 112 -80 122 -90 3 -3 30 -25 60 -50 112 -93 255 -232
355 -346 28 -32 61 -69 74 -83 13 -14 44 -52 69 -83 25 -32 48 -58 51 -58 3 0
6 29 6 65 0 36 -2 65 -5 65 -3 0 -5 33 -6 73 -2 142 -9 267 -15 267 -3 0 -6 6
-6 13 -3 60 -13 159 -16 165 -3 4 -8 32 -12 62 -10 74 -13 95 -15 95 -1 0 -3
16 -5 35 -2 19 -10 65 -19 101 -8 36 -17 77 -20 90 -3 13 -12 53 -21 89 -9 36
-18 72 -20 80 -9 36 -38 136 -43 150 -3 8 -6 17 -7 20 -7 20 -14 42 -29 90
-35 110 -124 346 -171 455 -7 17 -25 59 -40 95 -14 36 -35 84 -46 107 -10 24
-19 45 -19 48 0 6 -115 288 -141 342 -10 24 -19 47 -19 51 0 5 -6 22 -14 38
-8 16 -42 99 -76 184 -34 85 -68 169 -76 185 -14 34 -79 192 -148 365 -26 63
-51 124 -56 135 -5 11 -25 58 -44 105 -18 47 -39 99 -46 115 -7 17 -16 39 -21
50 -4 11 -29 72 -55 135 -25 63 -54 133 -64 155 -9 22 -27 65 -38 97 -12 31
-30 76 -40 100 -11 23 -25 57 -32 73 -8 17 -14 32 -14 35 -1 3 -13 34 -28 70
-15 36 -68 166 -118 290 -50 124 -95 234 -99 245 -12 27 -19 49 -17 56 0 4 -6
15 -15 25 -13 16 -23 41 -34 84 0 3 -5 14 -11 25 -20 37 -79 190 -76 198 1 4
-3 7 -8 7 -5 0 -9 3 -8 8 0 4 -2 16 -7 27 -4 11 -34 84 -67 163 -32 78 -58
144 -58 146 0 2 -8 21 -17 42 -9 22 -17 41 -18 44 -1 3 -6 16 -12 30 -6 14
-32 79 -58 145 -27 66 -51 123 -55 128 -11 12 -49 17 -55 6 -4 -5 -11 -7 -16
-4 -5 4 -9 1 -9 -4 0 -6 -5 -11 -10 -11 -6 0 -34 -15 -63 -33 -29 -18 -83 -50
-122 -72 -38 -21 -86 -47 -105 -58 -19 -11 -69 -38 -110 -60 -41 -23 -93 -51
-115 -63 -22 -13 -61 -33 -87 -46 -27 -13 -48 -26 -48 -30 0 -5 -9 -8 -20 -8
-11 0 -20 -4 -20 -10 0 -5 -4 -10 -10 -10 -10 0 -211 -109 -220 -119 -3 -4
-25 -16 -50 -29 -25 -12 -76 -41 -115 -63 -38 -22 -80 -45 -92 -51 -13 -6 -23
-15 -23 -20 0 -4 -6 -8 -12 -8 -7 0 -48 -23 -91 -50 -43 -28 -82 -50 -86 -50
-5 0 -11 -7 -15 -15 -3 -8 -12 -15 -19 -15 -8 0 -32 -17 -54 -37 -30 -28 -40
-44 -38 -63 19 -162 25 -235 40 -495 3 -66 8 -136 11 -155 6 -50 7 -309 0
-345 -7 -40 -15 -101 -21 -150 -2 -22 -14 -80 -25 -130 -11 -49 -22 -99 -24
-110 -2 -11 -10 -40 -17 -65 -7 -25 -14 -53 -15 -62 -1 -10 -7 -24 -13 -32 -6
-8 -11 -18 -9 -22 3 -12 -37 -122 -109 -301 -38 -94 -212 -443 -222 -443 -10
0 -166 314 -230 465 -5 11 -16 36 -24 55 -16 36 -105 295 -112 327 -3 10 -11
45 -20 78 -8 33 -17 69 -19 80 -2 11 -11 56 -21 100 -9 44 -18 98 -21 120 -2
22 -8 74 -13 115 -8 72 -6 258 4 405 2 39 7 115 10 170 9 147 13 200 15 200 1
0 3 27 5 60 2 33 6 91 9 130 4 62 2 72 -16 92 -12 13 -27 23 -35 23 -7 0 -13
3 -13 8 0 4 -20 18 -45 32 -25 14 -45 28 -45 32 0 5 -4 8 -9 8 -12 0 -115 63
-119 73 -2 4 -8 7 -12 7 -5 0 -33 14 -62 31 -63 38 -106 62 -167 96 -25 13
-68 38 -96 54 -27 16 -57 32 -65 36 -8 3 -21 11 -29 17 -7 5 -20 11 -28 12 -8
2 -22 9 -31 17 -10 8 -66 40 -127 73 -60 32 -141 75 -180 96 -38 22 -78 42
-87 45 -10 3 -18 10 -18 15 0 5 -4 7 -9 4 -5 -3 -14 1 -21 9 -7 8 -16 15 -20
15 -6 0 -134 70 -226 125 -115 68 -139 76 -159 52z"/>
</g>
</svg>
